<svg width="563" height="123" viewBox="0 0 563 123" fill="none" xmlns="http://www.w3.org/2000/svg">
<path d="M0 55.5621V109.003C0.338275 119.183 9.16161 122.576 13.531 123H68.9235C73.9976 123 78.9308 121.303 80.7631 120.455C92.8846 113.528 118.058 99.0786 121.779 96.7035C125.5 94.3283 126.712 90.0586 126.853 88.2207C127.135 86.5241 127.53 82.3676 126.853 79.3138C126.177 76.26 123.188 77.4759 121.779 78.4655C111.349 84.1207 89.0509 96.449 83.3002 100.521C77.5495 104.592 70.4739 105.328 67.655 105.186H25.7935C23.3973 105.045 18.6051 102.895 18.6051 96.7035C18.6051 89.9172 23.2564 87.7966 26.6391 87.7966C34.6732 87.7966 52.7709 87.8814 60.8895 88.2207C69.0081 88.56 75.8299 85.5345 78.226 83.9793C91.3342 76.4862 118.481 60.9062 122.202 58.531C125.923 56.1559 127.417 52.169 127.699 50.4724C127.84 49.2 128.037 45.7221 127.699 41.9897C127.36 38.2572 123.893 39.3035 122.202 40.2931C109.939 47.2207 84.315 61.7545 79.9174 64.469C75.5198 67.1835 69.9101 68.7104 67.655 68.7104H25.7935C21.1422 68.2862 18.6051 63.6207 18.6051 58.9552C18.6051 52.7633 23.5383 51.6035 26.6391 51.7448H58.7753C66.2173 51.7448 70.6149 50.331 71.8834 49.6241C86.8239 41.2828 117.635 24.091 121.356 22.0552C125.077 20.0193 126.853 16.9655 127.276 15.6931C127.699 13.5724 128.122 8.39793 126.43 4.66552C124.739 0.933103 117.832 0 114.591 0H81.6088C74.505 0 71.0377 1.13103 70.192 1.69655C54.6878 11.0276 21.3113 30.8772 11.8396 35.6276C2.36792 40.3779 0 50.8966 0 55.5621Z" fill="url(#paint0_linear_1668_1316)"/>
<path d="M159.72 106.404V36.9925C159.72 30.1006 161.724 24.6035 165.732 20.5012C169.822 16.3168 175.629 14.2246 183.154 14.2246C185.854 14.2246 188.389 14.5118 190.762 15.0861C193.215 15.6604 195.26 16.5629 196.896 17.7936L192.725 29.3622C191.579 28.4597 190.271 27.8033 188.798 27.3931C187.326 26.9008 185.813 26.6546 184.259 26.6546C181.069 26.6546 178.656 27.5572 177.02 29.3622C175.384 31.0851 174.566 33.7106 174.566 37.2386V44.6228L175.057 51.5147V106.404H159.72ZM148.923 53.4838V41.1768H192.602V53.4838H148.923ZM203.399 106.404V40.6846H218.736V106.404H203.399ZM211.129 29.8544C208.266 29.8544 205.894 28.9519 204.012 27.1469C202.213 25.3419 201.313 23.1677 201.313 20.6242C201.313 17.9988 202.213 15.8245 204.012 14.1016C205.894 12.2965 208.266 11.394 211.129 11.394C213.992 11.394 216.323 12.2555 218.122 13.9785C220.004 15.6194 220.944 17.7116 220.944 20.255C220.944 22.9626 220.044 25.2598 218.245 27.1469C216.445 28.9519 214.073 29.8544 211.129 29.8544Z" fill="white"/>
<path d="M251.504 107.265C246.024 107.265 240.748 106.568 235.677 105.173C230.687 103.696 226.72 101.932 223.775 99.881L229.665 88.1894C232.609 90.0764 236.127 91.6353 240.216 92.866C244.306 94.0967 248.396 94.7121 252.486 94.7121C257.312 94.7121 260.788 94.0557 262.915 92.7429C265.123 91.4302 266.227 89.6662 266.227 87.451C266.227 85.6459 265.491 84.2922 264.019 83.3897C262.547 82.4051 260.624 81.6667 258.252 81.1744C255.88 80.6821 253.222 80.2309 250.277 79.8207C247.414 79.4104 244.511 78.8771 241.566 78.2207C238.703 77.4823 236.086 76.4568 233.714 75.144C231.342 73.7492 229.419 71.9032 227.947 69.6059C226.475 67.3086 225.739 64.2729 225.739 60.4987C225.739 56.3144 226.925 52.7043 229.297 49.6686C231.669 46.5509 234.981 44.1715 239.235 42.5306C243.57 40.8076 248.682 39.9461 254.572 39.9461C258.989 39.9461 263.446 40.4384 267.945 41.423C272.444 42.4075 276.166 43.8023 279.11 45.6073L273.221 57.2989C270.113 55.4119 266.964 54.1402 263.774 53.4838C260.665 52.7454 257.557 52.3762 254.449 52.3762C249.787 52.3762 246.31 53.0736 244.02 54.4683C241.811 55.8631 240.707 57.6271 240.707 59.7603C240.707 61.7294 241.443 63.2063 242.916 64.1908C244.388 65.1754 246.31 65.9548 248.682 66.5291C251.054 67.1035 253.672 67.5957 256.535 68.006C259.479 68.3342 262.383 68.8675 265.246 69.6059C268.109 70.3443 270.726 71.3699 273.098 72.6826C275.552 73.9133 277.515 75.6773 278.988 77.9746C280.46 80.2719 281.196 83.2666 281.196 86.9587C281.196 91.061 279.969 94.63 277.515 97.6657C275.143 100.701 271.749 103.081 267.332 104.804C262.915 106.445 257.639 107.265 251.504 107.265Z" fill="white"/>
<path d="M316.853 107.265C309.982 107.265 303.847 105.829 298.449 102.958C293.132 100.004 288.96 95.9838 285.934 90.8969C282.907 85.81 281.394 80.0258 281.394 73.5441C281.394 66.9804 282.907 61.1961 285.934 56.1913C288.96 51.1044 293.132 47.1252 298.449 44.2536C303.847 41.382 309.982 39.9461 316.853 39.9461C323.233 39.9461 328.836 41.2589 333.662 43.8844C338.57 46.4278 342.291 50.2019 344.827 55.2068L333.048 62.0986C331.085 58.9809 328.672 56.6836 325.809 55.2068C323.028 53.7299 320.002 52.9915 316.73 52.9915C312.967 52.9915 309.573 53.812 306.546 55.4529C303.52 57.0938 301.148 59.4732 299.43 62.5909C297.713 65.6266 296.854 69.2777 296.854 73.5441C296.854 77.8105 297.713 81.5026 299.43 84.6204C301.148 87.6561 303.52 89.9944 306.546 91.6353C309.573 93.2762 312.967 94.0967 316.73 94.0967C320.002 94.0967 323.028 93.3583 325.809 91.8815C328.672 90.4046 331.085 88.1073 333.048 84.9896L344.827 91.8815C342.291 96.8042 338.57 100.619 333.662 103.327C328.836 105.952 323.233 107.265 316.853 107.265Z" fill="white"/>
<path d="M378.961 107.265C372.254 107.265 366.283 105.829 361.048 102.958C355.813 100.004 351.682 95.9838 348.656 90.8969C345.63 85.81 344.116 80.0258 344.116 73.5441C344.116 66.9804 345.63 61.1961 348.656 56.1913C351.682 51.1044 355.813 47.1252 361.048 44.2536C366.283 41.382 372.254 39.9461 378.961 39.9461C385.75 39.9461 391.762 41.382 396.997 44.2536C402.314 47.1252 406.445 51.0634 409.389 56.0682C412.416 61.0731 413.929 66.8984 413.929 73.5441C413.929 80.0258 412.416 85.81 409.389 90.8969C406.445 95.9838 402.314 100.004 396.997 102.958C391.762 105.829 385.75 107.265 378.961 107.265ZM378.961 94.0967C382.724 94.0967 386.078 93.2762 389.022 91.6353C391.967 89.9944 394.257 87.6151 395.893 84.4973C397.611 81.3795 398.47 77.7285 398.47 73.5441C398.47 69.2777 397.611 65.6266 395.893 62.5909C394.257 59.4732 391.967 57.0938 389.022 55.4529C386.078 53.812 382.765 52.9915 379.084 52.9915C375.321 52.9915 371.968 53.812 369.023 55.4529C366.16 57.0938 363.87 59.4732 362.152 62.5909C360.435 65.6266 359.576 69.2777 359.576 73.5441C359.576 77.7285 360.435 81.3795 362.152 84.4973C363.87 87.6151 366.16 89.9944 369.023 91.6353C371.968 93.2762 375.281 94.0967 378.961 94.0967Z" fill="white"/>
<path d="M422.729 106.404V15.0861H431.44V106.404H422.729Z" fill="white"/>
<path d="M480.823 106.404V92.1276L480.454 89.7893V65.9138C480.454 60.4167 478.9 56.1913 475.792 53.2376C472.766 50.284 468.226 48.8071 462.173 48.8071C458.002 48.8071 454.034 49.5045 450.272 50.8993C446.509 52.2941 443.319 54.1402 440.702 56.4375L436.775 49.9148C440.047 47.1252 443.974 44.992 448.554 43.5152C453.135 41.9563 457.961 41.1768 463.032 41.1768C471.375 41.1768 477.796 43.269 482.295 47.4534C486.875 51.5557 489.166 57.8322 489.166 66.283V106.404H480.823ZM458.615 107.019C453.789 107.019 449.577 106.24 445.978 104.681C442.46 103.04 439.761 100.825 437.88 98.0349C435.998 95.1633 435.058 91.8815 435.058 88.1894C435.058 84.8255 435.835 81.7898 437.389 79.0822C439.025 76.2927 441.642 74.0774 445.241 72.4365C448.922 70.7135 453.83 69.852 459.965 69.852H482.172V76.3747H460.21C453.994 76.3747 449.658 77.4823 447.204 79.6976C444.832 81.9128 443.646 84.6614 443.646 87.9432C443.646 91.6353 445.078 94.589 447.941 96.8042C450.803 99.0195 454.811 100.127 459.965 100.127C464.872 100.127 469.085 99.0195 472.602 96.8042C476.201 94.5069 478.819 91.2251 480.454 86.9587L482.418 92.9891C480.782 97.2555 477.919 100.66 473.829 103.204C469.821 105.747 464.75 107.019 458.615 107.019Z" fill="white"/>
<path d="M530.854 107.019C525.21 107.019 520.139 105.747 515.64 103.204C511.141 100.578 507.583 96.8042 504.966 91.8815C502.348 86.9587 501.04 81.0103 501.04 74.0364C501.04 66.9804 502.348 61.032 504.966 56.1913C507.665 51.2685 511.264 47.5354 515.763 44.992C520.262 42.4486 525.292 41.1768 530.854 41.1768C536.989 41.1768 542.469 42.5716 547.295 45.3612C552.203 48.0687 556.047 51.8839 558.828 56.8067C561.609 61.7294 563 67.4727 563 74.0364C563 80.518 561.609 86.2613 558.828 91.2661C556.047 96.1889 552.203 100.045 547.295 102.835C542.469 105.624 536.989 107.019 530.854 107.019ZM497.604 106.404V15.0861H506.315V60.868L505.088 73.9133L505.947 86.9587V106.404H497.604ZM530.241 99.2656C534.821 99.2656 538.911 98.24 542.51 96.1889C546.109 94.0557 548.972 91.102 551.099 87.3279C553.225 83.4717 554.289 79.0412 554.289 74.0364C554.289 68.9495 553.225 64.519 551.099 60.7449C548.972 56.9708 546.109 54.0581 542.51 52.0069C538.911 49.8737 534.821 48.8071 530.241 48.8071C525.66 48.8071 521.529 49.8737 517.849 52.0069C514.25 54.0581 511.387 56.9708 509.26 60.7449C507.215 64.519 506.193 68.9495 506.193 74.0364C506.193 79.0412 507.215 83.4717 509.26 87.3279C511.387 91.102 514.25 94.0557 517.849 96.1889C521.529 98.24 525.66 99.2656 530.241 99.2656Z" fill="white"/>
<defs>
<linearGradient id="paint0_linear_1668_1316" x1="281.5" y1="-1.53519e-06" x2="297.222" y2="224.427" gradientUnits="userSpaceOnUse">
<stop offset="0.317493" stop-color="white"/>
<stop offset="0.705386" stop-color="#9B9B9B"/>
</linearGradient>
</defs>
</svg>
